<mxfile host="app.diagrams.net" modified="2024-09-10T15:51:31.903Z" agent="Mozilla/5.0 (X11; Linux x86_64) AppleWebKit/537.36 (KHTML, like Gecko) Chrome/127.0.0.0 Safari/537.36 OPR/113.0.0.0" version="24.6.4" etag="TF-bUqDaZHyu7H2l-J3J" type="github">
  <diagram name="PÃ¡gina-1" id="v1fdPOqNOB3kHoUHXai5">
    <mxGraphModel>
      <root>
        <mxCell id="0" />
        <mxCell id="1" parent="0" />
      </root>
    </mxGraphModel>
  </diagram>
</mxfile>
